<svg width="318" height="113" viewBox="0 0 318 113" fill="none" xmlns="http://www.w3.org/2000/svg">
<path d="M16.5 9.24375C16.6904 8.5958 17.0857 8.02699 17.6265 7.6225C18.1673 7.21801 18.8246 6.99961 19.5 7H44.5C44.9949 7.00038 45.4826 7.11829 45.923 7.34403C46.3635 7.56977 46.744 7.89688 47.0332 8.29844C47.3225 8.7 47.5123 9.16451 47.5869 9.65375C47.6615 10.143 47.6189 10.643 47.4625 11.1125L36.3375 44.5H60.125C60.7102 44.4996 61.2838 44.6635 61.7804 44.9731C62.277 45.2827 62.6767 45.7255 62.934 46.2512C63.1913 46.7768 63.2958 47.3641 63.2356 47.9462C63.1755 48.5283 62.9531 49.0818 62.5937 49.5438L18.8437 105.794C18.3956 106.373 17.7583 106.776 17.0431 106.933C16.328 107.09 15.5803 106.991 14.9307 106.653C14.2811 106.316 13.7707 105.76 13.4887 105.085C13.2067 104.409 13.1708 103.656 13.3875 102.956L24.6437 66.375H3.875C3.38915 66.3753 2.90993 66.2623 2.4754 66.045C2.04086 65.8277 1.66298 65.512 1.37176 65.1231C1.08055 64.7342 0.88402 64.2828 0.797787 63.8047C0.711554 63.3265 0.73799 62.8349 0.874999 62.3688L16.5 9.24375Z" fill="url(#paint0_linear_2_54)"/>
<path d="M137.17 43.9C137.17 45.64 136.9 47.2 136.36 48.58C135.88 49.96 135.19 51.19 134.29 52.27C133.39 53.35 132.34 54.31 131.14 55.15C129.94 55.99 128.62 56.77 127.18 57.49C127.84 57.73 128.62 58.12 129.52 58.66C130.42 59.14 131.29 59.83 132.13 60.73C132.97 61.63 133.66 62.8 134.2 64.24C134.8 65.62 135.1 67.33 135.1 69.37C135.1 72.07 134.53 74.56 133.39 76.84C132.25 79.12 130.54 81.1 128.26 82.78C126.04 84.4 123.28 85.69 119.98 86.65C116.74 87.55 112.99 88 108.73 88H82L94.15 30.85H117.82C120.16 30.85 122.47 31.03 124.75 31.39C127.09 31.69 129.16 32.32 130.96 33.28C132.82 34.24 134.32 35.59 135.46 37.33C136.6 39.01 137.17 41.2 137.17 43.9ZM112.69 54.79C114.01 54.79 115.12 54.4 116.02 53.62C116.98 52.84 117.76 51.88 118.36 50.74C118.96 49.54 119.41 48.28 119.71 46.96C120.01 45.58 120.16 44.35 120.16 43.27C120.16 41.53 119.74 40.06 118.9 38.86C118.12 37.6 116.86 36.97 115.12 36.97H112.42L108.55 54.79H112.69ZM106.21 82.33C108.01 82.33 109.51 81.82 110.71 80.8C111.91 79.78 112.9 78.52 113.68 77.02C114.46 75.52 115 73.96 115.3 72.34C115.66 70.66 115.84 69.19 115.84 67.93C115.84 65.83 115.39 64.18 114.49 62.98C113.65 61.72 112.27 61.09 110.35 61.09H107.02L102.61 82.33H106.21ZM174.976 29.95C180.136 29.95 184.306 30.61 187.486 31.93C190.726 33.25 193.276 35.29 195.136 38.05C196.336 39.91 197.266 42.01 197.926 44.35C198.586 46.69 198.916 49.39 198.916 52.45C198.916 55.09 198.676 57.73 198.196 60.37C197.716 63.01 197.026 65.56 196.126 68.02C195.286 70.42 194.236 72.7 192.976 74.86C191.776 76.96 190.426 78.82 188.926 80.44C186.106 83.5 182.836 85.66 179.116 86.92C175.456 88.12 170.926 88.72 165.526 88.72C160.306 88.72 156.106 88.18 152.926 87.1C149.746 86.02 147.226 84.28 145.366 81.88C144.046 80.2 142.996 78.07 142.216 75.49C141.496 72.91 141.136 69.67 141.136 65.77C141.136 59.11 142.306 53.17 144.646 47.95C147.046 42.67 150.436 38.5 154.816 35.44C157.456 33.58 160.396 32.2 163.636 31.3C166.876 30.4 170.656 29.95 174.976 29.95ZM164.806 82.42C166.186 82.42 167.476 81.82 168.676 80.62C169.936 79.36 171.076 77.71 172.096 75.67C173.176 73.57 174.136 71.2 174.976 68.56C175.876 65.92 176.626 63.19 177.226 60.37C177.826 57.55 178.276 54.76 178.576 52C178.936 49.18 179.116 46.63 179.116 44.35C179.116 41.23 178.786 39.1 178.126 37.96C177.526 36.76 176.626 36.16 175.426 36.16C174.046 36.16 172.726 36.76 171.466 37.96C170.206 39.16 169.006 40.78 167.866 42.82C166.786 44.8 165.796 47.11 164.896 49.75C164.056 52.33 163.306 55 162.646 57.76C162.046 60.52 161.566 63.25 161.206 65.95C160.906 68.65 160.756 71.14 160.756 73.42C160.756 76.84 161.116 79.21 161.836 80.53C162.616 81.79 163.606 82.42 164.806 82.42ZM236.588 29.95C241.748 29.95 245.918 30.61 249.098 31.93C252.338 33.25 254.888 35.29 256.748 38.05C257.948 39.91 258.878 42.01 259.538 44.35C260.198 46.69 260.528 49.39 260.528 52.45C260.528 55.09 260.288 57.73 259.808 60.37C259.328 63.01 258.638 65.56 257.738 68.02C256.898 70.42 255.848 72.7 254.588 74.86C253.388 76.96 252.038 78.82 250.538 80.44C247.718 83.5 244.448 85.66 240.728 86.92C237.068 88.12 232.538 88.72 227.138 88.72C221.918 88.72 217.718 88.18 214.538 87.1C211.358 86.02 208.838 84.28 206.978 81.88C205.658 80.2 204.608 78.07 203.828 75.49C203.108 72.91 202.748 69.67 202.748 65.77C202.748 59.11 203.918 53.17 206.258 47.95C208.658 42.67 212.048 38.5 216.428 35.44C219.068 33.58 222.008 32.2 225.248 31.3C228.488 30.4 232.268 29.95 236.588 29.95ZM226.418 82.42C227.798 82.42 229.088 81.82 230.288 80.62C231.548 79.36 232.688 77.71 233.708 75.67C234.788 73.57 235.748 71.2 236.588 68.56C237.488 65.92 238.238 63.19 238.838 60.37C239.438 57.55 239.888 54.76 240.188 52C240.548 49.18 240.728 46.63 240.728 44.35C240.728 41.23 240.398 39.1 239.738 37.96C239.138 36.76 238.238 36.16 237.038 36.16C235.658 36.16 234.338 36.76 233.078 37.96C231.818 39.16 230.618 40.78 229.478 42.82C228.398 44.8 227.408 47.11 226.508 49.75C225.668 52.33 224.918 55 224.258 57.76C223.658 60.52 223.178 63.25 222.818 65.95C222.518 68.65 222.368 71.14 222.368 73.42C222.368 76.84 222.728 79.21 223.448 80.53C224.228 81.79 225.218 82.42 226.418 82.42ZM290.099 63.34C291.899 63.34 293.399 62.59 294.599 61.09C295.859 59.59 296.879 57.76 297.659 55.6C298.499 53.44 299.099 51.19 299.459 48.85C299.819 46.51 299.999 44.47 299.999 42.73C299.999 41.11 299.729 39.76 299.189 38.68C298.649 37.54 297.479 36.97 295.679 36.97H291.629L285.959 63.34H290.099ZM284.699 69.1L280.649 88H261.209L273.359 30.85H294.149C297.569 30.85 300.689 31.03 303.509 31.39C306.329 31.75 308.759 32.47 310.799 33.55C312.839 34.63 314.429 36.19 315.569 38.23C316.709 40.21 317.279 42.88 317.279 46.24C317.279 49.36 316.769 52.33 315.749 55.15C314.789 57.91 313.199 60.34 310.979 62.44C308.819 64.48 305.999 66.1 302.519 67.3C299.039 68.5 294.809 69.1 289.829 69.1H284.699Z" fill="url(#paint1_linear_2_54)"/>
<defs>
<linearGradient id="paint0_linear_2_54" x1="32.0002" y1="7" x2="32.0002" y2="107.006" gradientUnits="userSpaceOnUse">
<stop stop-color="#FBBF24"/>
<stop offset="0.514423" stop-color="#FFB800"/>
<stop offset="1" stop-color="#FFF1CB"/>
</linearGradient>
<linearGradient id="paint1_linear_2_54" x1="199" y1="0" x2="199" y2="113" gradientUnits="userSpaceOnUse">
<stop stop-color="#FBBF24"/>
<stop offset="0.519231" stop-color="#FFB800"/>
<stop offset="1" stop-color="white"/>
</linearGradient>
</defs>
</svg>
